# xmcd
#
# Track frame offsets:
#	150
#	10536
#	28786
#	44509
#	62450
#	77911
#	92764
#	105634
#	121690
#	139539
#	153068
#	169508
#	181818
#
# Disc length: 2627 seconds
#
# Revision: 1
# Processed by: cddbd v1.5.2PL0 Copyright (c) Steve Scherf et al.
# Submitted via: audiograbber 1.83.01
#
DISCID=8e0a410d
DTITLE=Kastelruther Spatzen - Ein Kreuz und eine Rose - CD 2
DYEAR=2009
DGENRE=
TTITLE0=Festliches Präludium
TTITLE1=Draußen vor der Tür
TTITLE2=Ihr Hirten im Freien
TTITLE3=Ein Märchen braucht die Welt
TTITLE4=Es wird still im Tal
TTITLE5=Maria und Joseph in unserer Zeit
TTITLE6=Leise rieselt der Schnee
TTITLE7=Warum hat man auch sie vergessen
TTITLE8=Oh Du fröhliche
TTITLE9=Eisblumen
TTITLE10=War ein Hirte in den Bergen
TTITLE11=Aber zu Weihnachten bin ich daheim
TTITLE12=Stille Nacht, heilige Nacht
EXTD=
EXTT0=
EXTT1=
EXTT2=
EXTT3=
EXTT4=
EXTT5=
EXTT6=
EXTT7=
EXTT8=
EXTT9=
EXTT10=
EXTT11=
EXTT12=
PLAYORDER=
